<?xml version="1.0" standalone="no"?><!DOCTYPE svg PUBLIC "-//W3C//DTD SVG 1.1//EN" "http://www.w3.org/Graphics/SVG/1.1/DTD/svg11.dtd"><svg t="1547968133746" class="icon" style="" viewBox="0 0 1024 1024" version="1.1" xmlns="http://www.w3.org/2000/svg" p-id="2936" xmlns:xlink="http://www.w3.org/1999/xlink" width="200" height="200"><defs><style type="text/css"></style></defs><path d="M519.395434 958.703855c-250.399957 0-454.105429-203.75766-454.105429-454.20162 0-204.577329 137.973398-384.691499 335.553359-437.990402 14.20349-3.786233 29.27986 1.439792 38.039362 13.262048a35.719526 35.719526 0 0 1 1.518586 40.255843c-33.765011 53.753251-51.615565 115.445312-51.615565 178.403202 0 185.435363 150.937664 336.303442 336.478428 336.303443 63.09706 0 124.868939-17.911952 178.647773-51.807946a35.731806 35.731806 0 0 1 40.273238 1.474584 35.731806 35.731806 0 0 1 13.296841 38.031175c-53.203736 197.98212-233.351676 336.269673-438.086593 336.269673zM339.142094 167.317727c-122.338303 65.36573-202.379267 194.177468-202.379267 337.184508 0 211.034391 171.650405 382.727775 382.631584 382.727775 143.172817 0 272.055163-80.285534 337.36768-202.980971a404.65825 404.65825 0 0 1-131.498939 21.960151c-224.941122 0-407.951249-182.931333-407.951249-407.776264a404.844491 404.844491 0 0 1 21.830191-131.115199z" fill="#cdcdcd" p-id="2937"></path><path d="M922.966932 398.444734H638.034485l-28.373211-79.168084 170.830736-140.537803H638.034485V89.397053h267.064498l28.372188 79.168084-170.829714 140.538827h160.325475z" fill="#cdcdcd" p-id="2938"></path></svg>